<?xml version="1.0" encoding="UTF-8"?>
<svg width="18px" height="18px" viewBox="0 0 18 18" version="1.1" xmlns="http://www.w3.org/2000/svg" xmlns:xlink="http://www.w3.org/1999/xlink">
    <!-- Generator: Sketch 52.5 (67469) - http://www.bohemiancoding.com/sketch -->
    <title>HKdollar_active</title>
    <desc>Created with Sketch.</desc>
    <g id="HKdollar_active" stroke="none" stroke-width="1" fill="none" fill-rule="evenodd">
        <g id="SGdollar_active-">
            <g id="Group">
                <g id="s-active" transform="translate(1.000000, 1.000000)">
                    <circle id="Oval-2-Copy-4" fill="#EC9202" cx="8" cy="8" r="8"></circle>
                    <path d="M6.34682162,9.22505986 C6.36034399,9.67731006 6.47528244,10.041765 6.69164041,10.3184358 C6.90799838,10.5951065 7.20278169,10.7706833 7.57599918,10.8451716 L7.57194249,8.37509976 C7.20142947,8.27400854 6.87148852,8.16360794 6.58210973,8.04389465 C6.29273095,7.92418136 6.04797967,7.77986251 5.84784855,7.61093376 C5.64771743,7.44200501 5.49559301,7.24115573 5.39147074,7.00837989 C5.28734847,6.77560405 5.23528811,6.49561217 5.23528811,6.16839585 C5.23799259,5.83319864 5.30087068,5.52593915 5.42392427,5.24660814 C5.54697787,4.96727713 5.71465278,4.7231987 5.92695404,4.51436552 C6.13925529,4.30553234 6.38671101,4.13660613 6.6693286,4.0075818 C6.9519462,3.87855748 7.2541667,3.79808476 7.57599918,3.76616121 L7.57599918,3 L8.55366186,3 L8.55366186,3.76616121 C9.1675776,3.86459214 9.65843238,4.12130678 10.0262409,4.53631285 C10.3940495,4.95131891 10.6509707,5.5126328 10.7970123,6.22027135 L9.46641748,6.22027135 C9.39610114,5.89837562 9.28792378,5.63700553 9.14188215,5.43615323 C8.99584052,5.23530094 8.80247349,5.09896285 8.56177525,5.02713488 L8.55366186,7.29768555 C8.74027061,7.33226939 8.93093321,7.38148412 9.12565538,7.44533121 C9.32037756,7.50917829 9.50833572,7.58765583 9.68953552,7.68076616 C9.87073532,7.7738765 10.0417908,7.88361203 10.202707,8.00997606 C10.3636232,8.13634008 10.5029016,8.27932881 10.6205462,8.43894653 C10.7381909,8.59856425 10.8314939,8.77680136 10.900458,8.97366321 C10.9694221,9.17052506 11.0025514,9.38600575 10.9998469,9.62011173 C10.9998469,9.96328982 10.9396733,10.2785301 10.8193241,10.565842 C10.698975,10.8531539 10.530624,11.1032179 10.314266,11.3160415 C10.0979081,11.5288651 9.84031072,11.7004516 9.54146628,11.8308061 C9.24262183,11.9611605 8.91335699,12.0409682 8.55366186,12.0702314 L8.55771856,13 L7.57599918,13 L7.58411257,12.0542698 C7.20548612,12.0063844 6.86540354,11.9092851 6.56385462,11.7629689 C6.2623057,11.6166526 6.00200393,11.4244492 5.78294148,11.1863528 C5.56387904,10.9482563 5.38876694,10.6649391 5.25759992,10.3363927 C5.1264329,10.0078462 5.04056712,9.63740563 5,9.22505986 L6.34682162,9.22505986 Z M8.56583194,10.8930567 C8.71728252,10.869114 8.85791309,10.8258849 8.98772787,10.7633679 C9.11754265,10.700851 9.22910055,10.6203783 9.32240493,10.5219473 C9.4157093,10.4235164 9.48872902,10.3058001 9.54146628,10.1687949 C9.59420353,10.0317897 9.62057176,9.87549968 9.62057176,9.69992019 C9.62057176,9.54828336 9.59352742,9.41593565 9.53943793,9.3028731 C9.48534844,9.18981055 9.4109765,9.09138111 9.31631989,9.0075818 C9.22166328,8.9237825 9.10942927,8.85262067 8.97961448,8.79409417 C8.8497997,8.73556768 8.70916913,8.6836927 8.55771856,8.63846768 L8.56583194,10.8930567 Z M6.63890342,6.05666401 C6.63890342,6.21096113 6.65918667,6.33998352 6.69975379,6.44373504 C6.74032091,6.54748655 6.79981846,6.63527498 6.87824822,6.70710295 C6.95667799,6.77893093 7.05471372,6.83878667 7.17235837,6.88667199 C7.29000301,6.9345573 7.42590082,6.97845152 7.58005587,7.01835595 L7.58411257,4.97525938 C7.44618436,5.00452263 7.31839985,5.0490819 7.20075521,5.10893855 C7.08311056,5.16879519 6.98237039,5.24328234 6.89853168,5.33240223 C6.81469297,5.42152213 6.74978655,5.52660221 6.70381048,5.64764565 C6.65783441,5.76868909 6.63619894,5.90502717 6.63890342,6.05666401 Z" id="$-copy-6" fill="#FFFFFF"></path>
                </g>
                <rect id="Rectangle" fill-rule="nonzero" x="0" y="0" width="18" height="18"></rect>
            </g>
        </g>
    </g>
</svg>