<?xml version="1.0" encoding="UTF-8" standalone="no"?>
<svg width="22px" height="24px" viewBox="0 0 22 24" version="1.1" xmlns="http://www.w3.org/2000/svg" xmlns:xlink="http://www.w3.org/1999/xlink">
    <!-- Generator: Sketch 48.1 (47250) - http://www.bohemiancoding.com/sketch -->
    <title>Group 21</title>
    <desc>Created with Sketch.</desc>
    <defs></defs>
    <g id="screen-size-1920" stroke="none" stroke-width="1" fill="none" fill-rule="evenodd" transform="translate(-342.000000, -13.000000)">
        <g id="Group-65" transform="translate(0.000000, 0.000000)">
            <g id="Group-32" transform="translate(329.000000, 0.000000)">
                <g id="Group-35" transform="translate(0.009432, 0.000000)">
                    <g id="Group-21" transform="translate(13.500000, 13.000000)">
                        <path d="M13.6530337,11.8219863 C15.1752809,11.8219863 16.6125843,12.8376015 16.6408989,14.6317926 L10.6080899,14.6317926 C10.6364045,12.8080887 12.1586517,11.8219863 13.6530337,11.8219863 Z M20.9065169,17.880075 C20.9676404,17.436446 21,17.0546533 21,16.5590256 C21,11.3821049 17.5047191,9 13.614382,9 C9.69662921,9 6.25707865,11.3821049 6.25707865,16.5590256 C6.25707865,18.9589319 6.99595506,20.7512492 8.17932584,21.9851655 L5,24 L13.614382,24 C16.8134831,24 19.7442697,22.4072455 20.6844944,18.9622111 L16.4121348,18.9622111 C15.9298876,20.0279513 14.7550562,20.4083385 13.5964045,20.4083385 C12.0737079,20.4083385 10.6364045,19.6737976 10.6080899,17.880075 L20.9065169,17.880075 Z" id="Fill-1" fill="#BE1E28"></path>
                        <path d="M14.6525192,2.31243923 C14.2326485,1.45047321 13.5439496,0.80297633 12.7351556,0.41538697 C11.6395193,-0.110789442 10.3221691,-0.159862889 9.13969477,0.399483537 C8.37755315,0.759809871 7.78262077,1.32233698 7.38214999,1.98982675 L7.42187374,2.03980896 C7.58123062,2.2601851 7.70779232,2.50282603 7.79601599,2.7613704 C7.67222571,2.5514451 7.51794977,2.36060391 7.33965482,2.19202753 L7.29300252,2.14886107 C6.96135543,1.84805901 6.54841324,1.62359343 6.08928065,1.50363611 C5.84308581,1.43911361 5.58488146,1.40185414 5.31651523,1.40185414 C3.75481775,1.40185414 2.48781503,2.57461867 2.48781503,4.02183099 C2.48781503,4.43532023 2.59359105,4.82336397 2.77742885,5.17051317 C2.95803332,5.51402731 3.21577576,5.81573813 3.53310382,6.05565277 C3.6337989,6.13153486 3.74096063,6.19923804 3.85181759,6.26103423 C3.64719411,6.19151352 3.45227062,6.10018238 3.27028044,5.99340219 C2.96311427,5.80892238 2.69382422,5.5758235 2.47534362,5.304102 L2.43192465,5.25003033 C1.66377827,5.46995208 1.01018408,5.93842175 0.574146693,6.55547492 C0.21155204,7.07074612 0,7.68779929 0,8.3539259 C0,9.16500094 0.316404251,9.90337457 0.835584366,10.4727174 L0.977850803,10.6217553 L1.01387932,10.6553797 C1.30303123,10.92801 1.6443783,11.1492949 2.02129198,11.309238 C2.91184292,11.7309061 4.0476649,11.5659648 4.53451173,11.4169269 C4.86153977,11.309238 5.16454881,11.1579282 5.43891979,10.9679958 C5.23337251,11.2588014 4.97793959,11.5146194 4.68740196,11.7290886 L5.30635334,13 C5.73407646,11.7254535 6.44864197,10.6358412 7.43388324,9.7793278 C8.9350713,8.47524637 11.0422774,7.75686562 13.368426,7.75686562 L13.5924495,7.76095508 C13.5208544,7.62509433 13.1559502,6.91625564 13.0792741,6.78312119 L13.2155358,6.67952169 C14.7028667,5.55673938 15.5033464,4.05681854 14.6525192,2.31243923 Z" id="Fill-3" fill="#E68C00"></path>
                    </g>
                </g>
            </g>
        </g>
    </g>
</svg>