<?xml version="1.0" encoding="UTF-8"?>
<svg width="528px" height="170px" viewBox="0 0 528 170" version="1.1" xmlns="http://www.w3.org/2000/svg" xmlns:xlink="http://www.w3.org/1999/xlink">
    <!-- Generator: Sketch 52.6 (67491) - http://www.bohemiancoding.com/sketch -->
    <title>en</title>
    <desc>Created with Sketch.</desc>
    <g id="en" stroke="none" stroke-width="1" fill="none" fill-rule="evenodd">
        <g id="Group-2">
            <g id="Group" transform="translate(12.000000, 9.000000)">
                <g id="eatigo-">
                    <g id="Page-1" transform="translate(0.011698, 0.651619)">
                        <path d="M155.257871,21 L155.257871,82.7575314 C155.257871,97.0892587 160.242565,99.9005871 175.171285,99.9005871 L186.660468,99.9005871 L186.660468,84.125152 L181.275828,84.125152 C175.034718,84.125152 173.20277,83.3740337 173.20277,77.6206627 L173.20277,54.8159309 L186.660468,54.8159309 L186.660468,39.0365938 L173.20277,39.0365938 L173.20277,21 L155.257871,21 Z M133.268639,72.8486228 L133.268639,74.5244945 C133.268639,84.1602692 126.539789,87.4164158 120.05481,87.4164158 C113.93661,87.4164158 111.010175,84.4724223 111.010175,80.6739098 C111.010175,76.8792992 113.63226,72.8486228 127.605012,72.8486228 L133.268639,72.8486228 Z M93.8788248,59.3265426 L111.376955,59.3265426 C111.745685,53.9360495 116.872799,51.7275666 122.87004,51.7275666 C129.598889,51.7275666 133.268639,54.3516032 133.268639,60.1069252 L133.268639,61.5798974 L128.500501,61.5798974 C114.547259,61.5798974 103.545815,63.7844784 97.5485742,68.4394609 C93.9997841,71.2566422 91.7991051,75.2853676 91.7991051,81.1675018 C91.7991051,92.1923576 101.005669,101.379412 116.18021,101.379412 C124.621999,101.379412 131.229889,99.2899377 135.512239,93.7823872 L135.512239,99.9005871 L151.225243,99.9005871 L151.215489,62.6665803 C151.582268,45.2699002 142.284009,39.2375424 124.171328,39.2375424 C111.445238,39.2375424 95.4688545,43.1550632 93.8788248,59.3265426 Z M191,99.8639933 L208.944899,99.8639933 L208.944899,39 L191,39 L191,99.8639933 Z M257.907453,68.3028939 C257.907453,77.4899486 252.401853,83.2491725 245.058452,83.2491725 C237.594092,83.2491725 232.211403,77.4899486 232.211403,68.4258042 C232.211403,58.2593693 237.594092,53.7233952 245.058452,53.7233952 C252.401853,53.7233952 257.907453,58.2593693 257.907453,68.3028939 Z M256.194513,93.8994446 L256.194513,96.4786092 C256.194513,103.841519 252.169689,109.138367 244.201982,109.138367 C237.962823,109.138367 233.924343,107.429329 231.967534,102.157844 L214.957143,102.157844 C217.282683,113.42852 226.337073,123.232077 244.324893,123.232077 C265.32499,123.232077 274.139412,111.516583 274.139412,91.9562918 L274.139412,39.0365938 L256.194513,39.0365938 L256.194513,43.2584639 C251.697558,38.6542063 245.598867,38.6542063 241.536976,38.6542063 C227.648116,38.6542063 213.123244,48.5806736 213.123244,68.3028939 C213.123244,88.3938451 225.279654,98.3144594 241.213117,98.3144594 C244.949199,98.3144594 251.781449,98.4100563 256.194513,93.8994446 Z M310.111149,86.3121744 C302.523879,86.3121744 297.260198,80.4300402 297.260198,70.0177848 C297.260198,59.4826191 302.64679,53.6004849 310.111149,53.6004849 C317.573559,53.6004849 323.077207,59.4826191 323.077207,70.0177848 C323.077207,80.4300402 317.573559,86.3121744 310.111149,86.3121744 Z M310.111149,38.533247 C293.100759,38.533247 278.170088,48.4577633 278.170088,70.0177848 C278.170088,91.5778062 293.100759,101.379412 310.111149,101.379412 C326.994728,101.379412 342.169268,91.5778062 342.169268,70.0177848 C342.169268,48.4577633 326.994728,38.533247 310.111149,38.533247 Z M57.5617676,49.8780597 C64.1696576,49.8780597 70.4088168,54.1077336 70.5317271,61.5798974 L44.3440366,61.5798974 C44.4669468,53.9848234 51.0748368,49.8780597 57.5617676,49.8780597 Z M89.0482563,75.1078306 C89.3135864,73.2602747 89.4540552,71.670245 89.4540552,69.6061329 C89.4540552,48.0461115 74.2814657,38.1254971 57.3939853,38.1254971 C40.3874966,38.1254971 25.4568256,48.0461115 25.4568256,69.6061329 C25.4568256,79.6008836 28.6641983,87.0652436 33.801067,92.2040633 L20,100.595128 L57.3939853,100.595128 C71.2808944,100.595128 84.0030825,93.9618752 88.0844837,79.6145403 L69.5386902,79.6145403 C67.4453137,84.0529666 62.3455132,85.6371434 57.315947,85.6371434 C50.706106,85.6371434 44.4669468,82.5780434 44.3440366,75.1078306 L89.0482563,75.1078306 Z" id="Fill-1" fill="#FFFFFF"></path>
                        <path d="M61.8882455,9.92876252 C60.114826,6.22779784 57.2059497,3.44768467 53.7898246,1.78351869 C49.1621556,-0.475689066 43.5980273,-0.68639238 38.6035784,1.7152352 C35.3845,3.26234379 32.8716679,5.67762807 31.1801885,8.54358333 L31.3479708,8.75818856 C32.0210508,9.70440251 32.5556129,10.7462133 32.9282456,11.8563077 C32.4053893,10.9549657 31.7537697,10.1355639 31.0007005,9.41175902 L30.8036539,9.22641814 C29.402867,7.93488487 27.6587118,6.97111231 25.719461,6.45605976 C24.6796011,6.17902392 23.5890163,6.01904548 22.4555106,6.01904548 C15.8593263,6.01904548 10.5078523,11.0544645 10.5078523,17.2682613 C10.5078523,19.0436318 10.9546214,20.7097487 11.7311021,22.2002796 C12.4939261,23.6752028 13.5825599,24.970638 14.9228671,26.0007431 C15.3481756,26.3265528 15.8007976,26.6172453 16.2690272,26.8825754 C15.4047534,26.5840791 14.5814497,26.1919368 13.8127728,25.733462 C12.5153866,24.9413736 11.3779789,23.9405329 10.4551765,22.7738608 L10.2717865,22.541697 C7.0273457,23.48596 4.2667421,25.4973963 2.42503906,28.1467953 C0.893538126,30.3591801 0,33.0085792 0,35.8686816 C0,39.3511391 1.33640528,42.5214436 3.5292805,44.9659922 L4.13017514,45.605906 L4.28234975,45.7502768 C5.50364859,46.9208508 6.94540552,47.8709666 8.53738612,48.5577034 C12.2988305,50.3681911 17.0962328,49.6599938 19.152541,49.0200801 C20.5338183,48.5577034 21.8136458,47.9080348 22.9725141,47.0925349 C22.1043384,48.3411472 21.0254594,49.4395357 19.7983077,50.3603873 L22.4125895,55.8172129 C24.2191753,50.3447796 27.2373052,45.6663857 31.3986956,41.9888325 C37.7393046,36.389587 46.6395687,33.3051246 56.4645861,33.3051246 L57.4108001,33.3226832 C57.1084018,32.7393472 55.5671461,29.6958549 55.2432873,29.1242246 L55.8188195,28.6794065 C62.1008998,23.8585927 65.4819076,17.4184849 61.8882455,9.92876252 Z" id="Fill-3" fill="#E68C00"></path>
                    </g>
                </g>
                <g id="Page-1" transform="translate(371.612941, 8.504830)">
                    <path d="M66.8575286,132.004362 C64.8859075,132.004362 63.6425707,130.2264 62.2004235,128.16825 C60.5965499,125.879357 58.7784144,123.284522 55.7643269,122.680881 C55.3564053,122.600532 54.9361225,122.559328 54.5189299,122.559328 C52.0209251,122.559328 49.746453,124.007656 47.7398083,125.286016 C46.060737,126.356296 44.6082888,127.27927 43.1517202,127.27927 C42.7324675,127.27927 42.3307265,127.200982 41.9609188,127.047496 C40.1407231,126.29964 39.6720252,124.178653 39.1281298,121.724943 C38.5234581,118.997225 37.8394683,115.905879 35.2889281,114.202086 C34.1249093,113.424356 32.7291169,113.047338 31.0253231,113.047338 C29.6130491,113.047338 28.2151964,113.291473 26.8647287,113.527367 C25.7089508,113.730297 24.6160093,113.920867 23.6538911,113.920867 C22.4260058,113.920867 21.5102424,113.600504 20.8499451,112.941237 C19.4603333,111.553685 19.8373518,109.420338 20.2741163,106.951176 C20.761356,104.197705 21.3124622,101.076487 19.6066082,98.5259464 C17.9017843,95.9702557 14.8083787,95.2821455 12.0796303,94.6754136 C9.62798022,94.1294579 7.51111427,93.6597299 6.75913755,91.8395343 C6.00510063,90.023459 7.17014948,88.1939923 8.51855704,86.0740361 C10.0194202,83.7150954 11.7211538,81.0399125 11.1236928,78.0289153 C10.5231415,75.0240988 7.92933693,73.2090536 5.64044342,71.6082703 C3.58023325,70.1671533 1.80227186,68.9238164 1.80227186,66.9521953 C1.80227186,64.9836645 3.57817304,63.7403276 5.63426279,62.3002407 C7.92521651,60.695337 10.5231415,58.8772015 11.1236928,55.8600237 C11.7211538,52.8500566 10.0194202,50.1810544 8.51958715,47.825204 C7.17014948,45.707308 6.00510063,43.8768112 6.75913755,42.0566155 C7.51111427,40.2374499 9.62798022,39.7666919 12.0796303,39.2217663 C14.8083787,38.6150344 17.9017843,37.9279543 19.6055781,35.3722636 C21.3124622,32.817603 20.761356,29.6974147 20.2741163,26.9439438 C19.8373518,24.4727216 19.4603333,22.339374 20.848915,20.947702 C21.5102424,20.290495 22.4218854,19.9721925 23.64256,19.9721925 C24.6057082,19.9721925 25.6986497,20.1648222 26.8554577,20.368783 C28.2090158,20.6057071 29.6109888,20.8529324 31.0253231,20.8529324 C32.7280868,20.8529324 34.1228491,20.4738537 35.2889281,19.6950942 C37.8394683,17.9902703 38.5244882,14.898925 39.1281298,12.1722368 C39.6720252,9.71749636 40.1407231,7.59857019 41.9609188,6.84350316 C42.3327867,6.6910476 42.7293772,6.61275962 43.1434794,6.61275962 C44.600048,6.61275962 46.0494059,7.53779399 47.7284771,8.60601297 C49.7351219,9.88437338 52.0095939,11.331671 54.5096589,11.331671 C54.9299418,11.331671 55.353315,11.2894367 55.7653571,11.2080584 C58.7804746,10.6105975 60.59758,8.01679285 62.2004235,5.72686924 C63.6425707,3.66974938 64.8879677,1.891788 66.8575286,1.891788 C68.8301799,1.891788 70.0745468,3.67077948 71.5146338,5.72995956 C73.1174773,8.01885306 74.9335525,10.6116276 77.9424895,11.2070283 C78.3576219,11.2904668 78.7809951,11.331671 79.2012779,11.331671 C81.7034032,11.331671 83.9789053,9.88334328 85.9865801,8.60601297 C87.6656514,7.53676388 89.1150093,6.61275962 90.5715779,6.61275962 C90.9867103,6.61275962 91.3822706,6.6910476 91.7500181,6.84041284 C93.5743342,7.59857019 94.0440622,9.71749636 94.5879576,12.1701766 C95.1926293,14.8968647 95.8786793,17.9892402 98.4323098,19.6950942 C99.5973587,20.4738537 100.992121,20.8529324 102.692824,20.8529324 C104.106129,20.8529324 105.507072,20.6057071 106.858569,20.368783 C108.014347,20.1648222 109.108319,19.9721925 110.069407,19.9721925 C111.291112,19.9721925 112.202755,20.290495 112.858932,20.9456418 C114.255754,22.3383439 113.877706,24.475812 113.440941,26.9511545 C112.954731,29.7015351 112.402595,32.8206933 114.108449,35.3712335 C115.814303,37.9279543 118.907709,38.6150344 121.637487,39.2217663 C124.090167,39.7666919 126.204973,40.2374499 126.96313,42.0545553 C127.713047,43.8768112 126.547998,45.7052477 125.199591,47.8210836 C123.696667,50.1769339 121.992873,52.8479964 122.591364,55.8610538 C123.190886,58.8782316 125.788811,60.6963671 128.079764,62.3012708 C130.135854,63.7403276 131.911755,64.9836645 131.911755,66.9521953 C131.911755,68.9238164 130.133794,70.1671533 128.073584,71.6072402 C125.78469,73.2090536 123.190886,75.0230687 122.591364,78.0289153 C121.992873,81.0430028 123.696667,83.7181857 125.200621,86.0781565 C126.547998,88.1950224 127.713047,90.023459 126.964161,91.8395343 C126.204973,93.6597299 124.090167,94.1294579 121.637487,94.6754136 C118.907709,95.2821455 115.814303,95.9692256 114.109479,98.5238862 C112.402595,101.074426 112.954731,104.192554 113.440941,106.943965 C113.877706,109.417247 114.256784,111.554716 112.858932,112.943297 C112.202755,113.600504 111.285961,113.920867 110.059106,113.920867 L110.058076,113.920867 C109.096988,113.920867 108.005076,113.730297 106.851359,113.527367 C105.499861,113.291473 104.103038,113.047338 102.694885,113.047338 C100.992121,113.047338 99.5973587,113.424356 98.4312797,114.203116 C95.8797094,115.905879 95.1926293,118.998255 94.5879576,121.725973 C94.0440622,124.179684 93.5743342,126.29964 91.7500181,127.048526 C91.3843308,127.202012 90.9825898,127.27927 90.5633371,127.27927 C89.1067685,127.27927 87.6553504,126.356296 85.9762791,125.287046 C83.9675742,124.007656 81.6931021,122.559328 79.192007,122.559328 C78.7727542,122.559328 78.3524713,122.600532 77.9424895,122.681911 C74.9366429,123.284522 73.1205676,125.877297 71.5177241,128.16516 C70.0755769,130.22537 68.8301799,132.004362 66.8575286,132.004362" id="Fill-1" fill="#BE1E28"></path>
                    <path d="M66.8575286,0.583451522 C64.2060381,0.583451522 62.6413085,2.81568925 61.1291142,4.97581962 C59.5952878,7.16479294 58.009956,9.42896392 55.5129813,9.92238426 C55.1802574,9.98934109 54.8444431,10.0223045 54.5096589,10.0223045 C52.3907328,10.0223045 50.2872582,8.68316784 48.4310088,7.5016373 C46.6571679,6.37161202 44.9811869,5.30442314 43.1434794,5.30442314 C42.5583797,5.30442314 41.9949122,5.41258418 41.4695586,5.62890625 C39.0096677,6.6518006 38.4204476,9.31462226 37.8507994,11.8888549 C37.2729105,14.497081 36.6754495,17.1938961 34.5606438,18.6061702 C33.6047063,19.2458654 32.4808616,19.5425357 31.024293,19.5425357 C29.7243004,19.5425357 28.3810434,19.3076717 27.0820809,19.0779583 C25.867587,18.8647265 24.72108,18.6628259 23.6435901,18.6628259 C22.0809206,18.6628259 20.8303731,19.1181324 19.928001,20.0174141 C18.0532097,21.8963258 18.5270581,24.5787195 18.9854549,27.171494 C19.4510624,29.8044426 19.9321214,32.5280404 18.516757,34.6438763 C17.1034529,36.7638326 14.4045775,37.3633537 11.7953213,37.944333 C9.22211882,38.5150112 6.56135737,39.1062915 5.54773397,41.5558814 C4.53411056,44.0054713 5.99892,46.3046659 7.41531449,48.5286628 C8.84922078,50.7804725 10.3336022,53.1105702 9.83812166,55.6054847 C9.34161101,58.1065799 7.07537981,59.6939718 4.88331618,61.2277983 C2.72524602,62.7399926 0.493008296,64.302662 0.493008296,66.9520923 C0.493008296,69.605643 2.72936644,71.1683124 4.89155703,72.6815368 C7.07950023,74.212273 9.34264111,75.7955445 9.83812166,78.2863386 C10.3346323,80.7812531 8.84922078,83.1144411 7.41325428,85.3724315 C5.99788989,87.5964284 4.53411056,89.896653 5.54979418,92.3441827 C6.56135737,94.7896522 9.22211882,95.3809325 11.7953213,95.953671 C14.4045775,96.5336201 17.1034529,97.1341714 18.5157269,99.2510374 C19.9321214,101.366873 19.4510624,104.089441 18.9854549,106.72239 C18.5270581,109.316194 18.0532097,111.998588 19.9249107,113.869259 C20.8283129,114.771631 22.084011,115.230027 23.6549212,115.230027 C24.7303509,115.230027 25.8768579,115.030187 27.0903217,114.817985 C28.3861939,114.591362 29.7273907,114.355468 31.024293,114.355468 C32.4818917,114.355468 33.6067665,114.653169 34.562704,115.290804 C36.6744194,116.703078 37.2718804,119.399893 37.8497693,122.007089 C38.4214777,124.585442 39.0106978,127.250324 41.4685285,128.259827 C41.9887316,128.476149 42.5594098,128.58843 43.1527503,128.58843 C44.9904578,128.58843 46.6674689,127.521241 48.4433701,126.390186 C50.2985893,125.207625 52.4020639,123.868489 54.5189299,123.868489 C54.8516538,123.868489 55.1854079,123.901452 55.5119512,123.966349 C58.0068657,124.46595 59.5932276,126.730121 61.1280841,128.920124 C62.6402784,131.080254 64.205008,133.314552 66.8575286,133.314552 C69.5121095,133.314552 71.0778692,131.079224 72.5910936,128.916004 C74.1238899,126.72806 75.7071615,124.46492 78.202076,123.965319 C78.5234688,123.901452 78.8572228,123.868489 79.1909769,123.868489 C81.3109332,123.868489 83.4154378,125.207625 85.2727173,126.391216 C87.0486185,127.521241 88.7245995,128.58843 90.562307,128.58843 C91.1556475,128.58843 91.7263257,128.476149 92.2578599,128.254676 C94.7033294,127.250324 95.2935796,124.586472 95.8663181,122.009149 C96.4452371,119.400923 97.0437282,116.704108 99.1585339,115.290804 C100.114471,114.653169 101.238316,114.355468 102.693855,114.355468 C103.989727,114.355468 105.328863,114.590332 106.623706,114.817985 C107.836139,115.030187 108.982646,115.230027 110.058076,115.230027 C111.628986,115.230027 112.883654,114.771631 113.788086,113.867198 C115.664938,112.000648 115.190059,109.315164 114.730633,106.716209 C114.265025,104.085321 113.784996,101.364813 115.19727,99.2530976 C116.612635,97.1331413 119.31151,96.5336201 121.921796,95.953671 C124.493969,95.3809325 127.1537,94.7906823 128.170414,92.3441827 C129.183007,89.8935627 127.719228,87.5964284 126.304893,85.3744917 C124.866867,83.1165014 123.380425,80.7822832 123.876936,78.2842784 C124.371386,75.7945144 126.634527,74.212273 128.8235,72.6805067 C130.985691,71.1683124 133.222049,69.605643 133.222049,66.9520923 C133.222049,64.302662 130.989811,62.7399926 128.830711,61.2288284 C126.638647,59.6939718 124.372416,58.10761 123.876936,55.6065148 C123.380425,53.1095401 124.865837,50.7794424 126.302833,48.5255725 C127.718198,46.3046659 129.183007,44.0075315 128.173504,41.5589717 C127.1537,39.1062915 124.493969,38.5150112 121.921796,37.944333 C119.31151,37.3633537 116.612635,36.7638326 115.19933,34.6459365 C113.784996,32.5301006 114.265025,29.808563 114.730633,27.1776746 C115.189029,24.5807797 115.663908,21.8942656 113.787056,20.0194743 C112.881594,19.1181324 111.632076,18.6628259 110.069407,18.6628259 C108.992947,18.6628259 107.84644,18.8647265 106.631946,19.0779583 C105.335044,19.3076717 103.991787,19.5425357 102.692824,19.5425357 C101.239346,19.5425357 100.116532,19.2458654 99.159564,18.6061702 C97.0426981,17.192866 96.4452371,14.4950207 95.865288,11.8867947 C95.2946097,9.31359215 94.7043595,6.6518006 92.2568298,5.63302667 C91.7201451,5.41258418 91.1566776,5.30442314 90.5715779,5.30442314 C88.7338704,5.30442314 87.0578894,6.37058191 85.2840485,7.50060719 C83.426769,8.68213773 81.3222643,10.0223045 79.2002478,10.0223045 C78.8654637,10.0223045 78.5286193,9.98934109 78.1989857,9.92341436 C75.7040712,9.42999403 74.1207996,7.16788325 72.5890334,4.97994004 C71.0768391,2.81774946 69.5110794,0.583451522 66.8575286,0.583451522 M66.8575286,3.20197866 C69.8654355,3.20197866 71.5125735,11.2677015 77.6870234,12.4924965 C78.2031061,12.5944769 78.7068275,12.6408316 79.2002478,12.6408316 C84.1602038,12.6408316 88.004556,7.92295028 90.5715779,7.92295028 C90.8085021,7.92295028 91.0361553,7.96312438 91.2524774,8.05171342 C94.0275805,9.20543112 92.4659412,17.2866055 97.7050556,20.7838123 C99.2790562,21.8355496 100.999332,22.1620929 102.692824,22.1620929 C105.476168,22.1620929 108.189465,21.2813531 110.069407,21.2813531 C110.856407,21.2813531 111.497133,21.4358688 111.936988,21.8726334 C114.060034,23.9946499 109.521391,30.8644207 113.020658,36.1004449 C116.516835,41.3385293 124.600069,39.7841007 125.752757,42.5571436 C126.896174,45.3322467 120.080998,49.9388766 121.307854,56.1153868 C122.534709,62.2991076 130.603522,63.9534564 130.603522,66.9520923 C130.603522,69.9558787 122.534709,71.6030168 121.307854,77.7743764 C120.080998,83.9519166 126.896174,88.5709078 125.752757,91.3398303 C124.600069,94.1128732 116.516835,92.5574145 113.020658,97.7975591 C109.521391,103.027403 114.060034,109.902324 111.936988,112.01507 C111.495072,112.456985 110.850227,112.6115 110.058076,112.6115 C108.178134,112.6115 105.469988,111.736941 102.693855,111.736941 C100.999332,111.736941 99.2790562,112.063484 97.7050556,113.113162 C92.4659412,116.611398 94.0275805,124.696693 91.2524774,125.83805 C91.033065,125.928699 90.8033515,125.969903 90.562307,125.969903 C87.994255,125.969903 84.1499028,121.249962 79.1909769,121.249962 C78.7006469,121.249962 78.1989857,121.296316 77.6870234,121.397267 C71.5125735,122.634423 69.8654355,130.696025 66.8575286,130.696025 C63.8527121,130.696025 62.2024838,122.634423 56.0218532,121.397267 C55.509891,121.296316 55.0092599,121.249962 54.5189299,121.249962 C49.5651545,121.249962 45.7208023,125.969903 43.1527503,125.969903 C42.9117058,125.969903 42.6809622,125.928699 42.46361,125.83805 C39.6874768,124.696693 41.2522065,116.611398 36.0161823,113.113162 C34.4411516,112.063484 32.719846,111.736941 31.024293,111.736941 C28.2460996,111.736941 25.5358931,112.6115 23.6549212,112.6115 C22.8627704,112.6115 22.2168945,112.456985 21.7760095,112.01507 C19.6601737,109.902324 24.1936662,103.027403 20.6954293,97.7975591 C17.1982225,92.5574145 9.11498789,94.1128732 7.96848093,91.3398303 C6.81888365,88.5709078 13.6330288,83.9519166 12.4072038,77.7743764 C11.1772583,71.6030168 3.11153543,69.9558787 3.11153543,66.9520923 C3.11153543,63.9534564 11.1772583,62.2991076 12.4072038,56.1153868 C13.6330288,49.9388766 6.81888365,45.3322467 7.96848093,42.5571436 C9.11498789,39.7841007 17.1982225,41.3385293 20.6954293,36.1004449 C24.1936662,30.8644207 19.6601737,23.9946499 21.7760095,21.8726334 C22.2148343,21.4348387 22.8555597,21.2813531 23.6435901,21.2813531 C25.524562,21.2813531 28.239919,22.1620929 31.024293,22.1620929 C32.719846,22.1620929 34.4421817,21.8355496 36.0161823,20.7838123 C41.2522065,17.2866055 39.6874768,9.20543112 42.46361,8.05171342 C42.678902,7.96312438 42.9055251,7.92295028 43.1434794,7.92295028 C45.7115314,7.92295028 49.5538234,12.6408316 54.5096589,12.6408316 C55.0020492,12.6408316 55.5068007,12.5944769 56.0218532,12.4924965 C62.2024838,11.2677015 63.8527121,3.20197866 66.8575286,3.20197866" id="Fill-3" fill="#FFFFFF"></path>
                    <path d="M49.4349262,66.116448 C48.4213027,64.9369776 47.1614842,63.9861906 45.6915243,63.2867493 C44.2174439,62.5862778 42.503349,62.2319217 40.5955944,62.2319217 C39.0545572,62.2319217 37.6556745,62.4647254 36.4401505,62.9262125 C35.4141658,63.3155922 34.4324756,63.9233542 33.5095015,64.7402276 L34.8599693,57.069035 L50.5072656,57.069035 L50.5072656,50.1426084 L28.8441555,50.1426084 L25.0101044,71.6409016 L32.4381922,71.6409016 L32.5319318,71.5141986 C33.2612462,70.5098462 34.0451561,69.7671404 34.8640897,69.3077135 C35.6778727,68.8493168 36.7522723,68.6185732 38.0574154,68.6185732 C39.0494066,68.6185732 39.9332368,68.7906008 40.6841834,69.1305355 C41.4320397,69.46944 42.0871866,69.9525593 42.6321121,70.5654718 C43.1770377,71.1763242 43.5901099,71.9025483 43.8682383,72.7256022 C44.1422462,73.5599873 44.2833706,74.4541186 44.2833706,75.3822432 C44.2833706,76.2732841 44.1350355,77.1571143 43.8414555,78.0059209 C43.5499358,78.8485469 43.1317131,79.5974333 42.601209,80.2299178 C42.0707049,80.8634324 41.4134978,81.3815753 40.6460695,81.7750754 C39.8837918,82.163425 39.0143831,82.3612052 38.0574154,82.3612052 C36.4154279,82.3612052 35.053629,81.8708752 34.0039519,80.9036065 C32.9470641,79.9363378 32.329001,78.6126528 32.1569735,76.9686051 L32.1271005,76.6945971 L23.8769888,76.6945971 L23.8811092,77.0056889 C23.918193,79.0205744 24.3384759,80.8191379 25.1295966,82.348844 C25.9207173,83.8733995 26.9940868,85.1703018 28.3177718,86.2024671 C29.6373365,87.2263916 31.1701328,87.9969102 32.8739266,88.4944509 C34.6539482,89.0095035 36.5709738,89.2361266 38.4900596,89.2371567 C40.3329176,89.2371567 42.0943973,88.9116435 43.7291741,88.2667977 C45.4504797,87.5920789 46.9822459,86.6165693 48.2822386,85.3711723 C49.5832613,84.123715 50.6319083,82.6300626 51.3983065,80.9303892 C52.1688251,79.2265954 52.5582048,77.3590149 52.5582048,75.3822432 C52.5582048,73.5939808 52.2903775,71.8819461 51.7598733,70.292494 C51.2262789,68.6968612 50.443399,67.292828 49.4349262,66.116448" id="Fill-5" fill="#FFFFFF"></path>
                    <path d="M68.7131369,82.3607932 C67.2452371,82.3607932 66.1584763,81.9034265 65.3858974,80.9619105 C64.5896262,79.9946418 64.0024663,78.8089908 63.6388392,77.4358607 C63.2680014,76.0400684 63.0434385,74.5721686 62.9744214,73.0733657 C62.9023141,71.6075262 62.8662604,70.2951723 62.8662604,69.1744179 C62.8662604,68.528542 62.8734711,67.7487525 62.8930431,66.8340192 C62.9095248,65.9460686 62.9723612,65.0024923 63.0794921,64.029043 C63.1845629,63.0741356 63.3638011,62.117168 63.6120565,61.185953 C63.8531011,60.2660691 64.1981863,59.4296238 64.6308304,58.7003094 C65.0531735,57.9895369 65.6032496,57.4034071 66.2625169,56.9635522 C66.9135433,56.5329683 67.7355671,56.314586 68.7131369,56.314586 C69.6896765,56.314586 70.5220014,56.5329683 71.1884794,56.9656124 C71.8662886,57.4044372 72.4338765,57.990567 72.8768216,58.7054599 C73.3238873,59.4244733 73.6658821,60.2578283 73.8914752,61.1808024 C74.1211886,62.1151078 74.301457,63.0741356 74.4250696,64.0352236 C74.5497123,64.9829203 74.6207896,65.9244364 74.6403616,66.8340192 C74.6578733,67.7487525 74.6661142,68.528542 74.6661142,69.1744179 C74.6661142,70.2457272 74.6300605,71.5580811 74.5589833,73.0733657 C74.4858458,74.5876202 74.2633431,76.0555199 73.8914752,77.4358607 C73.5288782,78.8059005 72.9345075,79.9915515 72.1217546,80.9598503 C71.3296038,81.9023964 70.2160602,82.3607932 68.7131369,82.3607932 M81.8232843,59.8344551 C81.0764582,57.3065772 80.0422326,55.2432767 78.7412099,53.7053298 C77.4340066,52.1601722 75.9022403,51.0414781 74.1902056,50.3780904 C72.4936226,49.7208833 70.6487043,49.3871293 68.7131369,49.3871293 C66.8074425,49.3871293 64.9820962,49.7208833 63.2865433,50.3780904 C61.5703882,51.0425082 60.0509832,52.1632625 58.7633518,53.7063599 C57.4819011,55.2432767 56.4548863,57.304517 55.7080601,59.833425 C54.9674146,62.3479115 54.589366,65.4907621 54.589366,69.1744179 C54.589366,72.968295 54.9643243,76.1842831 55.7080601,78.7327631 C56.4548863,81.2966946 57.4798409,83.3764768 58.7633518,84.9144237 C60.0468628,86.4575211 61.568328,87.5762152 63.2865433,88.2416631 C64.9872468,88.9009304 66.812593,89.2346844 68.7131369,89.2346844 C70.6466441,89.2346844 72.4895021,88.9009304 74.1902056,88.2416631 C75.9043005,87.5772453 77.4370969,86.4595813 78.7412099,84.9144237 C80.0422326,83.3754467 81.0795485,81.2966946 81.8232843,78.7337932 C82.5659901,76.1842831 82.9419785,72.968295 82.9419785,69.1744179 C82.9419785,65.4907621 82.5628998,62.3479115 81.8232843,59.8344551" id="Fill-7" fill="#FFFFFF"></path>
                    <path d="M104.829239,64.7031438 C104.854992,64.3302457 104.93019,63.98001 105.051742,63.6647979 C105.171234,63.3598867 105.338111,63.1136916 105.565764,62.9138512 C105.768695,62.7335829 106.065365,62.6429336 106.447534,62.6429336 C106.784379,62.6429336 107.035724,62.7387334 107.219083,62.9365136 C107.429225,63.1651969 107.587861,63.4371446 107.687781,63.7492665 C107.795942,64.07787 107.864959,64.431196 107.891742,64.8040941 C107.919555,65.1924437 107.935006,65.5272279 107.935006,65.8094766 C107.935006,66.1123275 107.919555,66.4553525 107.891742,66.8447323 C107.864959,67.21454 107.792852,67.5658058 107.67645,67.8944093 C107.568289,68.2013807 107.401412,68.4671478 107.173759,68.6845 C106.970828,68.88125 106.69373,68.9760197 106.330102,68.9760197 C105.951024,68.9760197 105.670835,68.8822801 105.477175,68.6886204 C105.259823,68.4722983 105.104277,68.2137419 105.001267,67.90059 C104.893106,67.5658058 104.829239,67.2083594 104.812758,66.8375215 C104.794216,66.4378408 104.783915,66.0865749 104.783915,65.7816638 C104.783915,65.460271 104.798336,65.0997342 104.829239,64.7031438 M111.258125,63.5720884 C111.094339,62.8355633 110.81003,62.1876272 110.410349,61.6488822 C110.005517,61.1018964 109.478104,60.6610114 108.840469,60.3427089 C108.201803,60.0233764 107.396261,59.8606198 106.447534,59.8606198 C105.558554,59.8606198 104.774644,60.0171957 104.120527,60.3241671 C103.46023,60.6331986 102.906033,61.0606922 102.477509,61.5942866 C102.044865,62.126851 101.724503,62.7572753 101.523632,63.4690779 C101.323792,64.1643988 101.222841,64.9328572 101.222841,65.7528209 C101.222841,66.5614534 101.30628,67.3350623 101.473157,68.0509853 C101.650335,68.7844201 101.939795,69.4292659 102.336385,69.9680109 C102.743277,70.5191171 103.277901,70.9558817 103.928928,71.2649132 C104.571713,71.5718845 105.372105,71.7274304 106.30229,71.7274304 C107.193331,71.7274304 107.97518,71.5780651 108.628267,71.282425 C109.286504,70.9836945 109.83658,70.5592912 110.262014,70.0215764 C110.678176,69.4900421 110.993388,68.8606479 111.197349,68.1498754 C111.397189,67.4452835 111.49814,66.6788853 111.49814,65.8671625 C111.49814,65.0533795 111.416761,64.2818308 111.258125,63.5720884" id="Fill-9" fill="#FFFFFF"></path>
                    <path d="M92.9598535,57.2056269 L92.9598535,57.206657 C92.9341008,57.5527723 92.8640537,57.8854963 92.749712,58.1924676 C92.6394908,58.4881077 92.4767342,58.7270921 92.2521713,58.9248723 C92.0471804,59.108231 91.7700821,59.19682 91.4013045,59.19682 C91.0191355,59.19682 90.7307061,59.1072009 90.5360162,58.9279626 C90.3258748,58.7332728 90.1682687,58.4891378 90.0704087,58.1996783 C89.965338,57.8937371 89.9004414,57.5579228 89.8849898,57.1994463 C89.8654178,56.8203676 89.8551167,56.4794028 89.8551167,56.1755218 C89.8551167,55.8520688 89.8695382,55.4832912 89.8983811,55.0650685 C89.9251639,54.6695082 90.0013917,54.2997004 90.1260344,53.9649163 C90.2424362,53.6455837 90.416524,53.3726059 90.6441772,53.1542236 C90.8471079,52.9585036 91.1345072,52.8627038 91.5166762,52.8627038 C91.8514604,52.8627038 92.1048662,52.9615939 92.2861647,53.1655547 C92.4963062,53.403509 92.6539123,53.6960589 92.7569228,54.0329032 C92.8640537,54.3965303 92.9341008,54.7797294 92.9598535,55.1691091 C92.9886964,55.5739404 93.0062082,55.9210859 93.0062082,56.2033347 C93.0062082,56.5051554 92.9886964,56.8399396 92.9598535,57.2056269 M93.6912281,61.5475199 C94.3546158,61.2580603 94.9036618,60.8491086 95.327035,60.3309657 C95.7442275,59.8190035 96.0604698,59.2030007 96.2654607,58.5025292 C96.4663312,57.8133889 96.5672815,57.050081 96.5672815,56.2332077 C96.5672815,55.4194247 96.4859032,54.638605 96.3282971,53.9123809 C96.1676007,53.1624644 95.8832917,52.4970165 95.4836109,51.9335491 C95.0808398,51.3628708 94.5493056,50.9075644 93.9137308,50.5789609 C93.2740355,50.247267 92.4674632,50.08039 91.5166762,50.08039 C90.6276955,50.08039 89.8417254,50.2421165 89.1834882,50.5614491 C88.5283414,50.8776913 87.9772352,51.3206365 87.5415007,51.8789535 C87.1160673,52.4249092 86.7967347,53.0728453 86.5927739,53.80525 C86.3919034,54.5232333 86.2919832,55.2989024 86.2919832,56.1147456 C86.2919832,56.931619 86.3774819,57.7000773 86.544359,58.3995187 C86.7174166,59.1226525 87.0089364,59.7571972 87.4096472,60.2794605 C87.8144785,60.8079044 88.3491031,61.2292174 89.0001295,61.5300081 C89.6470355,61.8277084 90.4463971,61.9791339 91.3704013,61.9791339 C92.2573218,61.9791339 93.0391716,61.832859 93.6912281,61.5475199" id="Fill-11" fill="#FFFFFF"></path>
                    <polygon id="Fill-13" fill="#FFFFFF" points="103.576838 49.8510886 91.2557506 71.959204 94.4727688 71.959204 106.73411 49.8510886"></polygon>
                    <path d="M56.314689,108.064078 C56.3970974,108.46788 56.5371917,108.831507 56.736002,109.152899 C56.9348123,109.474292 57.1974891,109.730788 57.5260926,109.923418 C57.8546961,110.113987 58.2667382,110.209787 58.7591284,110.209787 C59.2515186,110.209787 59.6645908,110.113987 60.000405,109.923418 C60.3351892,109.730788 60.6030165,109.474292 60.8007967,109.152899 C60.999607,108.831507 61.1407314,108.46788 61.2231398,108.064078 C61.3055482,107.660277 61.3457223,107.246175 61.3457223,106.821772 C61.3457223,106.398398 61.3055482,105.981206 61.2231398,105.569164 C61.1407314,105.159182 60.999607,104.796585 60.8007967,104.480343 C60.6030165,104.166161 60.3351892,103.910695 60.000405,103.710854 C59.6645908,103.513074 59.2515186,103.413154 58.7591284,103.413154 C58.2667382,103.413154 57.8546961,103.513074 57.5260926,103.710854 C57.1974891,103.910695 56.9348123,104.166161 56.736002,104.480343 C56.5371917,104.796585 56.3970974,105.159182 56.314689,105.569164 C56.2333107,105.981206 56.1921065,106.398398 56.1921065,106.821772 C56.1921065,107.246175 56.2333107,107.660277 56.314689,108.064078 M53.6662888,104.512276 C53.9258753,103.821076 54.2946529,103.232885 54.7746819,102.746676 C55.2536808,102.259436 55.8284794,101.883448 56.5001079,101.616651 C57.1707063,101.348823 57.9237132,101.21697 58.7591284,101.21697 C59.5935135,101.21697 60.3496106,101.348823 61.0274198,101.616651 C61.7041988,101.883448 62.2831179,102.259436 62.7621168,102.746676 C63.2421457,103.232885 63.6109234,103.821076 63.8715399,104.512276 C64.1311264,105.203477 64.2619498,105.973995 64.2619498,106.821772 C64.2619498,107.670578 64.1311264,108.436976 63.8715399,109.121996 C63.6109234,109.805986 63.2421457,110.392116 62.7621168,110.877295 C62.2831179,111.362475 61.7041988,111.736403 61.0274198,111.995989 C60.3496106,112.256606 59.5935135,112.386399 58.7591284,112.386399 C57.9237132,112.386399 57.1707063,112.256606 56.5001079,111.995989 C55.8284794,111.736403 55.2536808,111.362475 54.7746819,110.877295 C54.2946529,110.392116 53.9258753,109.805986 53.6662888,109.121996 C53.4056722,108.436976 53.275879,107.670578 53.275879,106.821772 C53.275879,105.973995 53.4056722,105.203477 53.6662888,104.512276" id="Fill-15" fill="#FFFFFF"></path>
                    <path d="M65.0414303,103.45477 L65.0414303,101.502721 L66.7864283,101.502721 L66.7864283,100.682757 C66.7864283,99.738151 67.0810384,98.9655722 67.6702585,98.3619306 C68.2584485,97.7603492 69.1484593,97.4585284 70.3402909,97.4585284 C70.5998774,97.4585284 70.8584337,97.4688295 71.1190503,97.4894316 C71.3796669,97.5100337 71.6320427,97.5275455 71.8792679,97.5409368 L71.8792679,99.7175489 C71.537273,99.6763447 71.1818867,99.6557426 70.812079,99.6557426 C70.4144584,99.6557426 70.1301494,99.7474219 69.9581219,99.9328408 C69.7881545,100.11723 69.7026558,100.429351 69.7026558,100.867146 L69.7026558,101.502721 L71.7154812,101.502721 L71.7154812,103.45477 L69.7026558,103.45477 L69.7026558,112.118984 L66.7864283,112.118984 L66.7864283,103.45477 L65.0414303,103.45477 Z" id="Fill-17" fill="#FFFFFF"></path>
                    <path d="M71.5097692,103.45477 L71.5097692,101.502721 L73.2547672,101.502721 L73.2547672,100.682757 C73.2547672,99.738151 73.5493773,98.9655722 74.1375673,98.3619306 C74.7267874,97.7603492 75.6157681,97.4585284 76.8075997,97.4585284 C77.0682162,97.4585284 77.3267726,97.4688295 77.5873892,97.4894316 C77.8469757,97.5100337 78.1003815,97.5275455 78.3476068,97.5409368 L78.3476068,99.7175489 C78.0056119,99.6763447 77.6491955,99.6557426 77.2804179,99.6557426 C76.8827973,99.6557426 76.5984883,99.7474219 76.4264608,99.9328408 C76.2564934,100.11723 76.1709947,100.429351 76.1709947,100.867146 L76.1709947,101.502721 L78.1838201,101.502721 L78.1838201,103.45477 L76.1709947,103.45477 L76.1709947,112.118984 L73.2547672,112.118984 L73.2547672,103.45477 L71.5097692,103.45477 Z" id="Fill-19" fill="#FFFFFF"></path>
                    <path d="M51.3332038,38.2140944 L51.3332038,36.7358936 L51.2713975,36.7358936 C50.9015898,37.3529266 50.4225909,37.7969019 49.835431,38.0698797 C49.2462109,38.3449178 48.6446295,38.4819218 48.0275966,38.4819218 C47.2467769,38.4819218 46.6070817,38.3789112 46.1074807,38.1728902 C45.6078797,37.9689294 45.2154097,37.6774097 44.9269803,37.3003912 C44.6395809,36.9244029 44.4376803,36.4660061 44.3212785,35.9252009 C44.2048766,35.3843958 44.1461606,34.7859047 44.1461606,34.1276675 L44.1461606,27.5978314 L47.0623881,27.5978314 L47.0623881,33.5951032 C47.0623881,34.4696624 47.198362,35.1248093 47.4723699,35.5553932 C47.747408,35.9859771 48.2325875,36.2022992 48.9309987,36.2022992 C49.7241797,36.2022992 50.3000084,35.9664051 50.6553947,35.4935869 C51.011811,35.0217988 51.1889891,34.2440694 51.1889891,33.1634892 L51.1889891,27.5978314 L54.1052166,27.5978314 L54.1052166,38.2140944 L51.3332038,38.2140944 Z" id="Fill-21" fill="#FFFFFF"></path>
                    <path d="M62.8826391,36.0181164 C63.2040318,35.8254868 63.4636183,35.5751712 63.6624286,35.2681999 C63.8612389,34.9601985 64.0013332,34.6006918 64.0837416,34.1896799 C64.16615,33.779698 64.2073542,33.3625055 64.2073542,32.9381022 C64.2073542,32.5136989 64.1630597,32.0944461 64.0734405,31.6844643 C63.9838214,31.2755126 63.8385766,30.9077651 63.6325556,30.5863723 C63.4265345,30.2649795 63.1628276,30.0043629 62.842465,29.8065827 C62.519012,29.6077724 62.1265419,29.5088823 61.6599043,29.5088823 C61.1829657,29.5088823 60.7812247,29.6077724 60.4598319,29.8065827 C60.137409,30.0043629 59.8778225,30.2608591 59.6800423,30.5760712 C59.480202,30.8912834 59.3411378,31.2538804 59.2576993,31.6638622 C59.176321,32.0759042 59.1351167,32.4992774 59.1351167,32.9381022 C59.1351167,33.3625055 59.1794113,33.779698 59.2690304,34.1896799 C59.3576194,34.6006918 59.5018342,34.9601985 59.7006444,35.2681999 C59.8994547,35.5751712 60.1621315,35.8254868 60.490735,36.0181164 C60.8193386,36.209716 61.215929,36.3044856 61.6815365,36.3044856 C62.1605354,36.3044856 62.5612463,36.209716 62.8826391,36.0181164 Z M59.0949426,27.5980374 L59.0949426,28.9546858 L59.1351167,28.9546858 C59.490503,28.3798872 59.9427191,27.9616645 60.490735,27.702078 C61.038751,27.4414614 61.6403323,27.3116682 62.2975394,27.3116682 C63.1319245,27.3116682 63.8499077,27.4692743 64.4535493,27.7834563 C65.0551307,28.0996986 65.5547317,28.5168911 65.9523522,29.0370942 C66.3499728,29.5572973 66.6435527,30.161969 66.8351523,30.8521394 C67.0257217,31.54437 67.1225516,32.2664737 67.1225516,33.0194805 C67.1225516,33.7312831 67.0257217,34.4152729 66.8351523,35.07351 C66.6435527,35.7307171 66.3530631,36.3116964 65.9626533,36.8185081 C65.5722434,37.3253198 65.087064,37.729121 64.5050546,38.0288815 C63.9230452,38.3307023 63.2421457,38.4821278 62.4623562,38.4821278 C61.804119,38.4821278 61.1984172,38.3482141 60.6442207,38.0814169 C60.0900242,37.8146197 59.6347177,37.4200894 59.2793315,36.8998864 L59.2391574,36.8998864 L59.2391574,41.9309196 L56.3229299,41.9309196 L56.3229299,27.5980374 L59.0949426,27.5980374 Z" id="Fill-23" fill="#FFFFFF"></path>
                    <path d="M80.408435,27.5982434 L80.408435,29.5502926 L78.2740573,29.5502926 L78.2740573,34.8058887 C78.2740573,35.2993091 78.3554356,35.6279126 78.5192223,35.7916993 C78.683009,35.955486 79.0126426,36.0368643 79.5050328,36.0368643 C79.6688195,36.0368643 79.8274557,36.0317138 79.9778511,36.0183224 C80.1272163,36.003901 80.2704009,35.984329 80.408435,35.955486 L80.408435,38.2145065 C80.1622399,38.2567408 79.8872018,38.2824934 79.5874412,38.2969149 C79.2856205,38.3092761 78.9910104,38.3164869 78.7036111,38.3164869 C78.252425,38.3164869 77.8239013,38.2866138 77.4211302,38.2237774 C77.017329,38.1630012 76.6598826,38.043509 76.3529113,37.866331 C76.0449098,37.6881228 75.801805,37.4347169 75.6235969,37.1050833 C75.4464188,36.7775099 75.3578297,36.3458958 75.3578297,35.8123014 L75.3578297,29.5502926 L73.5911995,29.5502926 L73.5911995,27.5982434 L75.3578297,27.5982434 L75.3578297,24.4162488 L78.2740573,24.4162488 L78.2740573,27.5982434 L80.408435,27.5982434 Z" id="Fill-25" fill="#FFFFFF"></path>
                    <path d="M84.5148459,34.1590858 C84.5962242,34.5639171 84.7373486,34.926514 84.9351288,35.2479068 C85.1349692,35.5692996 85.3966159,35.8257958 85.7262495,36.0184254 C86.0538229,36.2089949 86.465865,36.3047947 86.9582552,36.3047947 C87.4516755,36.3047947 87.8647477,36.2089949 88.2005619,36.0184254 C88.5353461,35.8257958 88.8031734,35.5692996 89.0009536,35.2479068 C89.1997639,34.926514 89.3398582,34.5639171 89.4232967,34.1590858 C89.504675,33.7552846 89.5458792,33.3411823 89.5458792,32.916779 C89.5458792,32.4934058 89.504675,32.0762133 89.4232967,31.6641712 C89.3398582,31.2541894 89.1997639,30.8915924 89.0009536,30.5753501 C88.8031734,30.2611681 88.5353461,30.0046719 88.2005619,29.8058616 C87.8647477,29.6080815 87.4516755,29.5081613 86.9582552,29.5081613 C86.465865,29.5081613 86.0538229,29.6080815 85.7262495,29.8058616 C85.3966159,30.0046719 85.1349692,30.2611681 84.9351288,30.5753501 C84.7373486,30.8915924 84.5962242,31.2541894 84.5148459,31.6641712 C84.4334676,32.0762133 84.3922634,32.4934058 84.3922634,32.916779 C84.3922634,33.3411823 84.4334676,33.7552846 84.5148459,34.1590858 M81.8664457,30.6072834 C82.1260322,29.9160829 82.49584,29.3278929 82.9748388,28.8416833 C83.4538377,28.3544436 84.0286363,27.9784552 84.7002648,27.711658 C85.3698332,27.4438307 86.1238701,27.3119772 86.9582552,27.3119772 C87.7936704,27.3119772 88.5497676,27.4438307 89.2275767,27.711658 C89.9053859,27.9784552 90.4832748,28.3544436 90.9622737,28.8416833 C91.4412725,29.3278929 91.8110803,29.9160829 92.0716969,30.6072834 C92.3312833,31.2984839 92.4621067,32.0690025 92.4621067,32.916779 C92.4621067,33.7655856 92.3312833,34.5319838 92.0716969,35.2170037 C91.8110803,35.9009935 91.4412725,36.4871233 90.9622737,36.9723027 C90.4832748,37.4574822 89.9053859,37.8314104 89.2275767,38.0909969 C88.5497676,38.3516135 87.7936704,38.4814067 86.9582552,38.4814067 C86.1238701,38.4814067 85.3698332,38.3516135 84.7002648,38.0909969 C84.0286363,37.8314104 83.4538377,37.4574822 82.9748388,36.9723027 C82.49584,36.4871233 82.1260322,35.9009935 81.8664457,35.2170037 C81.6058292,34.5319838 81.4760359,33.7655856 81.4760359,32.916779 C81.4760359,32.0690025 81.6058292,31.2984839 81.8664457,30.6072834" id="Fill-27" fill="#FFFFFF"></path>
                </g>
            </g>
            <rect id="Rectangle-Copy" x="0" y="0" width="528" height="170"></rect>
        </g>
        <polygon id="Path" fill="#E68C00" points="220.956597 30 202.594193 30 220.956597 44.6263217"></polygon>
    </g>
</svg>